<mxfile host="Electron" modified="2023-10-12T11:59:13.335Z" agent="Mozilla/5.0 (Windows NT 10.0; Win64; x64) AppleWebKit/537.36 (KHTML, like Gecko) draw.io/22.0.2 Chrome/114.0.5735.289 Electron/25.8.4 Safari/537.36" etag="PSy5gNg1iME_DHaLDHDk" version="22.0.2" type="device">
  <diagram name="Page-1" id="sKDGrgg-4e8HEx4262xj">
    <mxGraphModel dx="1467" dy="953" grid="1" gridSize="10" guides="1" tooltips="1" connect="1" arrows="1" fold="1" page="1" pageScale="1" pageWidth="827" pageHeight="1169" math="0" shadow="0">
      <root>
        <mxCell id="0" />
        <mxCell id="1" parent="0" />
        <mxCell id="LmtkI2Z2XZf2oRWt__9S-68" style="edgeStyle=orthogonalEdgeStyle;rounded=0;orthogonalLoop=1;jettySize=auto;html=1;exitX=0.5;exitY=1;exitDx=0;exitDy=0;entryX=0.5;entryY=0;entryDx=0;entryDy=0;endArrow=none;endFill=0;" edge="1" parent="1" source="eoe2bmUxkcTKK9iqaYhG-2" target="LmtkI2Z2XZf2oRWt__9S-43">
          <mxGeometry relative="1" as="geometry" />
        </mxCell>
        <mxCell id="LmtkI2Z2XZf2oRWt__9S-69" style="edgeStyle=orthogonalEdgeStyle;rounded=0;orthogonalLoop=1;jettySize=auto;html=1;exitX=0.5;exitY=1;exitDx=0;exitDy=0;entryX=0.5;entryY=0;entryDx=0;entryDy=0;endArrow=none;endFill=0;" edge="1" parent="1" source="eoe2bmUxkcTKK9iqaYhG-2" target="LmtkI2Z2XZf2oRWt__9S-50">
          <mxGeometry relative="1" as="geometry" />
        </mxCell>
        <mxCell id="LmtkI2Z2XZf2oRWt__9S-70" style="edgeStyle=orthogonalEdgeStyle;rounded=0;orthogonalLoop=1;jettySize=auto;html=1;exitX=0.5;exitY=1;exitDx=0;exitDy=0;entryX=0.5;entryY=0;entryDx=0;entryDy=0;endArrow=none;endFill=0;" edge="1" parent="1" source="eoe2bmUxkcTKK9iqaYhG-2" target="LmtkI2Z2XZf2oRWt__9S-57">
          <mxGeometry relative="1" as="geometry" />
        </mxCell>
        <mxCell id="LmtkI2Z2XZf2oRWt__9S-71" style="edgeStyle=orthogonalEdgeStyle;rounded=0;orthogonalLoop=1;jettySize=auto;html=1;exitX=0.5;exitY=1;exitDx=0;exitDy=0;endArrow=none;endFill=0;" edge="1" parent="1" source="eoe2bmUxkcTKK9iqaYhG-2" target="LmtkI2Z2XZf2oRWt__9S-35">
          <mxGeometry relative="1" as="geometry" />
        </mxCell>
        <mxCell id="LmtkI2Z2XZf2oRWt__9S-72" style="edgeStyle=orthogonalEdgeStyle;rounded=0;orthogonalLoop=1;jettySize=auto;html=1;exitX=0.5;exitY=1;exitDx=0;exitDy=0;entryX=0.5;entryY=0;entryDx=0;entryDy=0;endArrow=none;endFill=0;" edge="1" parent="1" source="eoe2bmUxkcTKK9iqaYhG-2" target="LmtkI2Z2XZf2oRWt__9S-8">
          <mxGeometry relative="1" as="geometry" />
        </mxCell>
        <mxCell id="LmtkI2Z2XZf2oRWt__9S-80" style="edgeStyle=orthogonalEdgeStyle;rounded=0;orthogonalLoop=1;jettySize=auto;html=1;exitX=0.5;exitY=1;exitDx=0;exitDy=0;entryX=0.5;entryY=0;entryDx=0;entryDy=0;endArrow=none;endFill=0;" edge="1" parent="1" source="eoe2bmUxkcTKK9iqaYhG-2" target="LmtkI2Z2XZf2oRWt__9S-76">
          <mxGeometry relative="1" as="geometry" />
        </mxCell>
        <mxCell id="eoe2bmUxkcTKK9iqaYhG-2" value="&lt;font style=&quot;font-size: 14px;&quot;&gt;&lt;b&gt;Travel Planner&lt;/b&gt;&lt;/font&gt;" style="rounded=0;whiteSpace=wrap;html=1;fillColor=#dae8fc;strokeColor=#6c8ebf;" parent="1" vertex="1">
          <mxGeometry x="470" y="40" width="120" height="60" as="geometry" />
        </mxCell>
        <mxCell id="LmtkI2Z2XZf2oRWt__9S-17" style="edgeStyle=orthogonalEdgeStyle;rounded=0;orthogonalLoop=1;jettySize=auto;html=1;exitX=0.25;exitY=1;exitDx=0;exitDy=0;entryX=0;entryY=0.5;entryDx=0;entryDy=0;endArrow=none;endFill=0;fillColor=#f8cecc;strokeColor=#b85450;" edge="1" parent="1" source="LmtkI2Z2XZf2oRWt__9S-8" target="LmtkI2Z2XZf2oRWt__9S-13">
          <mxGeometry relative="1" as="geometry" />
        </mxCell>
        <mxCell id="LmtkI2Z2XZf2oRWt__9S-98" style="edgeStyle=orthogonalEdgeStyle;rounded=0;orthogonalLoop=1;jettySize=auto;html=1;exitX=0.25;exitY=1;exitDx=0;exitDy=0;entryX=0;entryY=0.5;entryDx=0;entryDy=0;endArrow=none;endFill=0;fillColor=#f8cecc;strokeColor=#b85450;" edge="1" parent="1" source="LmtkI2Z2XZf2oRWt__9S-8" target="LmtkI2Z2XZf2oRWt__9S-97">
          <mxGeometry relative="1" as="geometry" />
        </mxCell>
        <mxCell id="LmtkI2Z2XZf2oRWt__9S-99" style="edgeStyle=orthogonalEdgeStyle;rounded=0;orthogonalLoop=1;jettySize=auto;html=1;exitX=0.25;exitY=1;exitDx=0;exitDy=0;entryX=0;entryY=0.5;entryDx=0;entryDy=0;endArrow=none;endFill=0;fillColor=#f8cecc;strokeColor=#b85450;" edge="1" parent="1" source="LmtkI2Z2XZf2oRWt__9S-8" target="LmtkI2Z2XZf2oRWt__9S-14">
          <mxGeometry relative="1" as="geometry" />
        </mxCell>
        <mxCell id="LmtkI2Z2XZf2oRWt__9S-100" style="edgeStyle=orthogonalEdgeStyle;rounded=0;orthogonalLoop=1;jettySize=auto;html=1;exitX=0.25;exitY=1;exitDx=0;exitDy=0;entryX=0;entryY=0.5;entryDx=0;entryDy=0;endArrow=none;endFill=0;fillColor=#f8cecc;strokeColor=#b85450;" edge="1" parent="1" source="LmtkI2Z2XZf2oRWt__9S-8" target="LmtkI2Z2XZf2oRWt__9S-96">
          <mxGeometry relative="1" as="geometry" />
        </mxCell>
        <mxCell id="LmtkI2Z2XZf2oRWt__9S-8" value="Initiation" style="whiteSpace=wrap;html=1;fillColor=#f8cecc;strokeColor=#b85450;fontStyle=1" vertex="1" parent="1">
          <mxGeometry x="10" y="200" width="120" height="60" as="geometry" />
        </mxCell>
        <mxCell id="LmtkI2Z2XZf2oRWt__9S-13" value="Research project ideas" style="whiteSpace=wrap;html=1;fillColor=#f8cecc;strokeColor=#b85450;" vertex="1" parent="1">
          <mxGeometry x="80" y="320" width="120" height="60" as="geometry" />
        </mxCell>
        <mxCell id="LmtkI2Z2XZf2oRWt__9S-14" value="Identify problems solved by the project" style="whiteSpace=wrap;html=1;fillColor=#f8cecc;strokeColor=#b85450;" vertex="1" parent="1">
          <mxGeometry x="80" y="525" width="120" height="60" as="geometry" />
        </mxCell>
        <mxCell id="LmtkI2Z2XZf2oRWt__9S-32" style="edgeStyle=orthogonalEdgeStyle;rounded=0;orthogonalLoop=1;jettySize=auto;html=1;exitX=0.25;exitY=1;exitDx=0;exitDy=0;entryX=0;entryY=0.5;entryDx=0;entryDy=0;endArrow=none;endFill=0;fillColor=#ffe6cc;strokeColor=#d79b00;" edge="1" source="LmtkI2Z2XZf2oRWt__9S-35" target="LmtkI2Z2XZf2oRWt__9S-36" parent="1">
          <mxGeometry relative="1" as="geometry" />
        </mxCell>
        <mxCell id="LmtkI2Z2XZf2oRWt__9S-33" style="edgeStyle=orthogonalEdgeStyle;rounded=0;orthogonalLoop=1;jettySize=auto;html=1;exitX=0.25;exitY=1;exitDx=0;exitDy=0;entryX=0;entryY=0.5;entryDx=0;entryDy=0;endArrow=none;endFill=0;fillColor=#ffe6cc;strokeColor=#d79b00;" edge="1" source="LmtkI2Z2XZf2oRWt__9S-35" target="LmtkI2Z2XZf2oRWt__9S-37" parent="1">
          <mxGeometry relative="1" as="geometry" />
        </mxCell>
        <mxCell id="LmtkI2Z2XZf2oRWt__9S-34" style="edgeStyle=orthogonalEdgeStyle;rounded=0;orthogonalLoop=1;jettySize=auto;html=1;exitX=0.25;exitY=1;exitDx=0;exitDy=0;entryX=0;entryY=0.5;entryDx=0;entryDy=0;endArrow=none;endFill=0;fillColor=#ffe6cc;strokeColor=#d79b00;" edge="1" source="LmtkI2Z2XZf2oRWt__9S-35" target="LmtkI2Z2XZf2oRWt__9S-38" parent="1">
          <mxGeometry relative="1" as="geometry" />
        </mxCell>
        <mxCell id="LmtkI2Z2XZf2oRWt__9S-82" style="edgeStyle=orthogonalEdgeStyle;rounded=0;orthogonalLoop=1;jettySize=auto;html=1;exitX=0.25;exitY=1;exitDx=0;exitDy=0;entryX=0;entryY=0.5;entryDx=0;entryDy=0;endArrow=none;endFill=0;fillColor=#ffe6cc;strokeColor=#d79b00;" edge="1" parent="1" source="LmtkI2Z2XZf2oRWt__9S-35" target="LmtkI2Z2XZf2oRWt__9S-81">
          <mxGeometry relative="1" as="geometry" />
        </mxCell>
        <mxCell id="LmtkI2Z2XZf2oRWt__9S-84" style="edgeStyle=orthogonalEdgeStyle;rounded=0;orthogonalLoop=1;jettySize=auto;html=1;exitX=0.25;exitY=1;exitDx=0;exitDy=0;entryX=0;entryY=0.5;entryDx=0;entryDy=0;endArrow=none;endFill=0;fillColor=#ffe6cc;strokeColor=#d79b00;" edge="1" parent="1" source="LmtkI2Z2XZf2oRWt__9S-35" target="LmtkI2Z2XZf2oRWt__9S-83">
          <mxGeometry relative="1" as="geometry" />
        </mxCell>
        <mxCell id="LmtkI2Z2XZf2oRWt__9S-92" style="edgeStyle=orthogonalEdgeStyle;rounded=0;orthogonalLoop=1;jettySize=auto;html=1;exitX=0.25;exitY=1;exitDx=0;exitDy=0;entryX=0;entryY=0.5;entryDx=0;entryDy=0;endArrow=none;endFill=0;fillColor=#ffe6cc;strokeColor=#d79b00;" edge="1" parent="1" source="LmtkI2Z2XZf2oRWt__9S-35" target="LmtkI2Z2XZf2oRWt__9S-91">
          <mxGeometry relative="1" as="geometry" />
        </mxCell>
        <mxCell id="LmtkI2Z2XZf2oRWt__9S-35" value="Planning" style="whiteSpace=wrap;html=1;fillColor=#ffe6cc;strokeColor=#d79b00;fontStyle=1" vertex="1" parent="1">
          <mxGeometry x="190" y="200" width="120" height="60" as="geometry" />
        </mxCell>
        <mxCell id="LmtkI2Z2XZf2oRWt__9S-36" value="Identify project goals and scope" style="whiteSpace=wrap;html=1;fillColor=#ffe6cc;strokeColor=#d79b00;" vertex="1" parent="1">
          <mxGeometry x="260" y="320" width="120" height="60" as="geometry" />
        </mxCell>
        <mxCell id="LmtkI2Z2XZf2oRWt__9S-37" value="Requirement gathering" style="whiteSpace=wrap;html=1;fillColor=#ffe6cc;strokeColor=#d79b00;" vertex="1" parent="1">
          <mxGeometry x="260" y="420" width="120" height="60" as="geometry" />
        </mxCell>
        <mxCell id="LmtkI2Z2XZf2oRWt__9S-38" value="Risk assessment" style="whiteSpace=wrap;html=1;fillColor=#ffe6cc;strokeColor=#d79b00;" vertex="1" parent="1">
          <mxGeometry x="260" y="525" width="120" height="60" as="geometry" />
        </mxCell>
        <mxCell id="LmtkI2Z2XZf2oRWt__9S-40" style="edgeStyle=orthogonalEdgeStyle;rounded=0;orthogonalLoop=1;jettySize=auto;html=1;exitX=0.25;exitY=1;exitDx=0;exitDy=0;entryX=0;entryY=0.5;entryDx=0;entryDy=0;endArrow=none;endFill=0;fillColor=#e1d5e7;strokeColor=#9673a6;" edge="1" parent="1" source="LmtkI2Z2XZf2oRWt__9S-43" target="LmtkI2Z2XZf2oRWt__9S-44">
          <mxGeometry relative="1" as="geometry" />
        </mxCell>
        <mxCell id="LmtkI2Z2XZf2oRWt__9S-41" style="edgeStyle=orthogonalEdgeStyle;rounded=0;orthogonalLoop=1;jettySize=auto;html=1;exitX=0.25;exitY=1;exitDx=0;exitDy=0;entryX=0;entryY=0.5;entryDx=0;entryDy=0;endArrow=none;endFill=0;fillColor=#e1d5e7;strokeColor=#9673a6;" edge="1" parent="1" source="LmtkI2Z2XZf2oRWt__9S-43" target="LmtkI2Z2XZf2oRWt__9S-45">
          <mxGeometry relative="1" as="geometry" />
        </mxCell>
        <mxCell id="LmtkI2Z2XZf2oRWt__9S-42" style="edgeStyle=orthogonalEdgeStyle;rounded=0;orthogonalLoop=1;jettySize=auto;html=1;exitX=0.25;exitY=1;exitDx=0;exitDy=0;entryX=0;entryY=0.5;entryDx=0;entryDy=0;endArrow=none;endFill=0;fillColor=#e1d5e7;strokeColor=#9673a6;" edge="1" parent="1" source="LmtkI2Z2XZf2oRWt__9S-43" target="LmtkI2Z2XZf2oRWt__9S-46">
          <mxGeometry relative="1" as="geometry" />
        </mxCell>
        <mxCell id="LmtkI2Z2XZf2oRWt__9S-102" style="edgeStyle=orthogonalEdgeStyle;rounded=0;orthogonalLoop=1;jettySize=auto;html=1;exitX=0.25;exitY=1;exitDx=0;exitDy=0;entryX=0;entryY=0.5;entryDx=0;entryDy=0;endArrow=none;endFill=0;fillColor=#e1d5e7;strokeColor=#9673a6;" edge="1" parent="1" source="LmtkI2Z2XZf2oRWt__9S-43" target="LmtkI2Z2XZf2oRWt__9S-101">
          <mxGeometry relative="1" as="geometry" />
        </mxCell>
        <mxCell id="LmtkI2Z2XZf2oRWt__9S-104" style="edgeStyle=orthogonalEdgeStyle;rounded=0;orthogonalLoop=1;jettySize=auto;html=1;exitX=0.25;exitY=1;exitDx=0;exitDy=0;entryX=0;entryY=0.5;entryDx=0;entryDy=0;endArrow=none;endFill=0;fillColor=#e1d5e7;strokeColor=#9673a6;" edge="1" parent="1" source="LmtkI2Z2XZf2oRWt__9S-43" target="LmtkI2Z2XZf2oRWt__9S-103">
          <mxGeometry relative="1" as="geometry" />
        </mxCell>
        <mxCell id="LmtkI2Z2XZf2oRWt__9S-43" value="Design" style="whiteSpace=wrap;html=1;fillColor=#e1d5e7;strokeColor=#9673a6;fontStyle=1" vertex="1" parent="1">
          <mxGeometry x="380" y="200" width="120" height="60" as="geometry" />
        </mxCell>
        <mxCell id="LmtkI2Z2XZf2oRWt__9S-44" value="Develop SRS" style="whiteSpace=wrap;html=1;fillColor=#e1d5e7;strokeColor=#9673a6;" vertex="1" parent="1">
          <mxGeometry x="450" y="320" width="120" height="60" as="geometry" />
        </mxCell>
        <mxCell id="LmtkI2Z2XZf2oRWt__9S-45" value="Design ERD, Flow chart" style="whiteSpace=wrap;html=1;fillColor=#e1d5e7;strokeColor=#9673a6;" vertex="1" parent="1">
          <mxGeometry x="450" y="420" width="120" height="60" as="geometry" />
        </mxCell>
        <mxCell id="LmtkI2Z2XZf2oRWt__9S-46" value="Design UML diagrams" style="whiteSpace=wrap;html=1;fillColor=#e1d5e7;strokeColor=#9673a6;" vertex="1" parent="1">
          <mxGeometry x="450" y="525" width="120" height="60" as="geometry" />
        </mxCell>
        <mxCell id="LmtkI2Z2XZf2oRWt__9S-47" style="edgeStyle=orthogonalEdgeStyle;rounded=0;orthogonalLoop=1;jettySize=auto;html=1;exitX=0.25;exitY=1;exitDx=0;exitDy=0;entryX=0;entryY=0.5;entryDx=0;entryDy=0;endArrow=none;endFill=0;fillColor=#d5e8d4;strokeColor=#82b366;" edge="1" parent="1" source="LmtkI2Z2XZf2oRWt__9S-50" target="LmtkI2Z2XZf2oRWt__9S-51">
          <mxGeometry relative="1" as="geometry" />
        </mxCell>
        <mxCell id="LmtkI2Z2XZf2oRWt__9S-48" style="edgeStyle=orthogonalEdgeStyle;rounded=0;orthogonalLoop=1;jettySize=auto;html=1;exitX=0.25;exitY=1;exitDx=0;exitDy=0;entryX=0;entryY=0.5;entryDx=0;entryDy=0;endArrow=none;endFill=0;fillColor=#d5e8d4;strokeColor=#82b366;" edge="1" parent="1" source="LmtkI2Z2XZf2oRWt__9S-50" target="LmtkI2Z2XZf2oRWt__9S-52">
          <mxGeometry relative="1" as="geometry" />
        </mxCell>
        <mxCell id="LmtkI2Z2XZf2oRWt__9S-49" style="edgeStyle=orthogonalEdgeStyle;rounded=0;orthogonalLoop=1;jettySize=auto;html=1;exitX=0.25;exitY=1;exitDx=0;exitDy=0;entryX=0;entryY=0.5;entryDx=0;entryDy=0;endArrow=none;endFill=0;fillColor=#d5e8d4;strokeColor=#82b366;" edge="1" parent="1" source="LmtkI2Z2XZf2oRWt__9S-50" target="LmtkI2Z2XZf2oRWt__9S-53">
          <mxGeometry relative="1" as="geometry" />
        </mxCell>
        <mxCell id="LmtkI2Z2XZf2oRWt__9S-88" style="edgeStyle=orthogonalEdgeStyle;rounded=0;orthogonalLoop=1;jettySize=auto;html=1;exitX=0.25;exitY=1;exitDx=0;exitDy=0;entryX=0;entryY=0.5;entryDx=0;entryDy=0;endArrow=none;endFill=0;fillColor=#d5e8d4;strokeColor=#82b366;" edge="1" parent="1" source="LmtkI2Z2XZf2oRWt__9S-50" target="LmtkI2Z2XZf2oRWt__9S-87">
          <mxGeometry relative="1" as="geometry" />
        </mxCell>
        <mxCell id="LmtkI2Z2XZf2oRWt__9S-50" value="Development" style="whiteSpace=wrap;html=1;fillColor=#d5e8d4;strokeColor=#82b366;fontStyle=1" vertex="1" parent="1">
          <mxGeometry x="560" y="200" width="120" height="60" as="geometry" />
        </mxCell>
        <mxCell id="LmtkI2Z2XZf2oRWt__9S-51" value="Front-end&lt;br&gt;development" style="whiteSpace=wrap;html=1;fillColor=#d5e8d4;strokeColor=#82b366;" vertex="1" parent="1">
          <mxGeometry x="630" y="320" width="120" height="60" as="geometry" />
        </mxCell>
        <mxCell id="LmtkI2Z2XZf2oRWt__9S-52" value="Back-end&lt;br style=&quot;border-color: var(--border-color);&quot;&gt;development" style="whiteSpace=wrap;html=1;fillColor=#d5e8d4;strokeColor=#82b366;" vertex="1" parent="1">
          <mxGeometry x="630" y="420" width="120" height="60" as="geometry" />
        </mxCell>
        <mxCell id="LmtkI2Z2XZf2oRWt__9S-53" value="White box testing - Unit, Integratoin testing" style="whiteSpace=wrap;html=1;fillColor=#d5e8d4;strokeColor=#82b366;" vertex="1" parent="1">
          <mxGeometry x="630" y="525" width="120" height="60" as="geometry" />
        </mxCell>
        <mxCell id="LmtkI2Z2XZf2oRWt__9S-54" style="edgeStyle=orthogonalEdgeStyle;rounded=0;orthogonalLoop=1;jettySize=auto;html=1;exitX=0.25;exitY=1;exitDx=0;exitDy=0;entryX=0;entryY=0.5;entryDx=0;entryDy=0;endArrow=none;endFill=0;fillColor=#b0e3e6;strokeColor=#0e8088;" edge="1" parent="1" source="LmtkI2Z2XZf2oRWt__9S-57" target="LmtkI2Z2XZf2oRWt__9S-58">
          <mxGeometry relative="1" as="geometry" />
        </mxCell>
        <mxCell id="LmtkI2Z2XZf2oRWt__9S-55" style="edgeStyle=orthogonalEdgeStyle;rounded=0;orthogonalLoop=1;jettySize=auto;html=1;exitX=0.25;exitY=1;exitDx=0;exitDy=0;entryX=0;entryY=0.5;entryDx=0;entryDy=0;endArrow=none;endFill=0;fillColor=#b0e3e6;strokeColor=#0e8088;" edge="1" parent="1" source="LmtkI2Z2XZf2oRWt__9S-57" target="LmtkI2Z2XZf2oRWt__9S-59">
          <mxGeometry relative="1" as="geometry" />
        </mxCell>
        <mxCell id="LmtkI2Z2XZf2oRWt__9S-57" value="Documentation" style="whiteSpace=wrap;html=1;fillColor=#b0e3e6;strokeColor=#0e8088;fontStyle=1" vertex="1" parent="1">
          <mxGeometry x="740" y="200" width="120" height="60" as="geometry" />
        </mxCell>
        <mxCell id="LmtkI2Z2XZf2oRWt__9S-58" value="Final Report" style="whiteSpace=wrap;html=1;fillColor=#b0e3e6;strokeColor=#0e8088;" vertex="1" parent="1">
          <mxGeometry x="810" y="320" width="120" height="60" as="geometry" />
        </mxCell>
        <mxCell id="LmtkI2Z2XZf2oRWt__9S-59" value="User guide" style="whiteSpace=wrap;html=1;fillColor=#b0e3e6;strokeColor=#0e8088;" vertex="1" parent="1">
          <mxGeometry x="810" y="420" width="120" height="60" as="geometry" />
        </mxCell>
        <mxCell id="LmtkI2Z2XZf2oRWt__9S-73" style="edgeStyle=orthogonalEdgeStyle;rounded=0;orthogonalLoop=1;jettySize=auto;html=1;exitX=0.25;exitY=1;exitDx=0;exitDy=0;entryX=0;entryY=0.5;entryDx=0;entryDy=0;endArrow=none;endFill=0;fillColor=#fff2cc;strokeColor=#d6b656;" edge="1" source="LmtkI2Z2XZf2oRWt__9S-76" target="LmtkI2Z2XZf2oRWt__9S-77" parent="1">
          <mxGeometry relative="1" as="geometry" />
        </mxCell>
        <mxCell id="LmtkI2Z2XZf2oRWt__9S-74" style="edgeStyle=orthogonalEdgeStyle;rounded=0;orthogonalLoop=1;jettySize=auto;html=1;exitX=0.25;exitY=1;exitDx=0;exitDy=0;entryX=0;entryY=0.5;entryDx=0;entryDy=0;endArrow=none;endFill=0;fillColor=#fff2cc;strokeColor=#d6b656;" edge="1" source="LmtkI2Z2XZf2oRWt__9S-76" target="LmtkI2Z2XZf2oRWt__9S-78" parent="1">
          <mxGeometry relative="1" as="geometry" />
        </mxCell>
        <mxCell id="LmtkI2Z2XZf2oRWt__9S-75" style="edgeStyle=orthogonalEdgeStyle;rounded=0;orthogonalLoop=1;jettySize=auto;html=1;exitX=0.25;exitY=1;exitDx=0;exitDy=0;entryX=0;entryY=0.5;entryDx=0;entryDy=0;endArrow=none;endFill=0;fillColor=#fff2cc;strokeColor=#d6b656;" edge="1" source="LmtkI2Z2XZf2oRWt__9S-76" target="LmtkI2Z2XZf2oRWt__9S-79" parent="1">
          <mxGeometry relative="1" as="geometry" />
        </mxCell>
        <mxCell id="LmtkI2Z2XZf2oRWt__9S-94" style="edgeStyle=orthogonalEdgeStyle;rounded=0;orthogonalLoop=1;jettySize=auto;html=1;exitX=0.25;exitY=1;exitDx=0;exitDy=0;entryX=0;entryY=0.5;entryDx=0;entryDy=0;endArrow=none;endFill=0;fillColor=#fff2cc;strokeColor=#d6b656;" edge="1" parent="1" source="LmtkI2Z2XZf2oRWt__9S-76" target="LmtkI2Z2XZf2oRWt__9S-93">
          <mxGeometry relative="1" as="geometry" />
        </mxCell>
        <mxCell id="LmtkI2Z2XZf2oRWt__9S-76" value="Deployment" style="whiteSpace=wrap;html=1;fillColor=#fff2cc;strokeColor=#d6b656;fontStyle=1" vertex="1" parent="1">
          <mxGeometry x="920" y="200" width="120" height="60" as="geometry" />
        </mxCell>
        <mxCell id="LmtkI2Z2XZf2oRWt__9S-77" value="Deploy application" style="whiteSpace=wrap;html=1;fillColor=#fff2cc;strokeColor=#d6b656;" vertex="1" parent="1">
          <mxGeometry x="990" y="320" width="120" height="60" as="geometry" />
        </mxCell>
        <mxCell id="LmtkI2Z2XZf2oRWt__9S-78" value="Monitor, track activites" style="whiteSpace=wrap;html=1;fillColor=#fff2cc;strokeColor=#d6b656;" vertex="1" parent="1">
          <mxGeometry x="990" y="420" width="120" height="60" as="geometry" />
        </mxCell>
        <mxCell id="LmtkI2Z2XZf2oRWt__9S-79" value="Project closure" style="whiteSpace=wrap;html=1;fillColor=#fff2cc;strokeColor=#d6b656;" vertex="1" parent="1">
          <mxGeometry x="990" y="525" width="120" height="60" as="geometry" />
        </mxCell>
        <mxCell id="LmtkI2Z2XZf2oRWt__9S-81" value="Estimate completion date and schedule tasks accordingly" style="whiteSpace=wrap;html=1;fillColor=#ffe6cc;strokeColor=#d79b00;" vertex="1" parent="1">
          <mxGeometry x="260" y="630" width="120" height="60" as="geometry" />
        </mxCell>
        <mxCell id="LmtkI2Z2XZf2oRWt__9S-83" value="Decide on the software development methodology" style="whiteSpace=wrap;html=1;fillColor=#ffe6cc;strokeColor=#d79b00;" vertex="1" parent="1">
          <mxGeometry x="260" y="740" width="120" height="60" as="geometry" />
        </mxCell>
        <mxCell id="LmtkI2Z2XZf2oRWt__9S-87" value="Black box testing" style="whiteSpace=wrap;html=1;fillColor=#d5e8d4;strokeColor=#82b366;" vertex="1" parent="1">
          <mxGeometry x="630" y="630" width="120" height="60" as="geometry" />
        </mxCell>
        <mxCell id="LmtkI2Z2XZf2oRWt__9S-91" value="Begin project proposal" style="whiteSpace=wrap;html=1;fillColor=#ffe6cc;strokeColor=#d79b00;" vertex="1" parent="1">
          <mxGeometry x="260" y="850" width="120" height="60" as="geometry" />
        </mxCell>
        <mxCell id="LmtkI2Z2XZf2oRWt__9S-93" value="Make adjustments accordingly" style="whiteSpace=wrap;html=1;fillColor=#fff2cc;strokeColor=#d6b656;" vertex="1" parent="1">
          <mxGeometry x="990" y="630" width="120" height="60" as="geometry" />
        </mxCell>
        <mxCell id="LmtkI2Z2XZf2oRWt__9S-96" value="Research feasability of the project" style="whiteSpace=wrap;html=1;fillColor=#f8cecc;strokeColor=#b85450;" vertex="1" parent="1">
          <mxGeometry x="80" y="630" width="120" height="60" as="geometry" />
        </mxCell>
        <mxCell id="LmtkI2Z2XZf2oRWt__9S-97" value="Finalize project idea" style="whiteSpace=wrap;html=1;fillColor=#f8cecc;strokeColor=#b85450;" vertex="1" parent="1">
          <mxGeometry x="80" y="420" width="120" height="60" as="geometry" />
        </mxCell>
        <mxCell id="LmtkI2Z2XZf2oRWt__9S-101" value="Develop wireframes and prototypes" style="whiteSpace=wrap;html=1;fillColor=#e1d5e7;strokeColor=#9673a6;" vertex="1" parent="1">
          <mxGeometry x="450" y="630" width="120" height="60" as="geometry" />
        </mxCell>
        <mxCell id="LmtkI2Z2XZf2oRWt__9S-103" value="Interim report" style="whiteSpace=wrap;html=1;fillColor=#e1d5e7;strokeColor=#9673a6;" vertex="1" parent="1">
          <mxGeometry x="450" y="740" width="120" height="60" as="geometry" />
        </mxCell>
      </root>
    </mxGraphModel>
  </diagram>
</mxfile>
